<?xml version="1.0" encoding="iso-8859-1"?>
<!-- Generator: Adobe Illustrator 16.0.0, SVG Export Plug-In . SVG Version: 6.00 Build 0)  -->
<!DOCTYPE svg PUBLIC "-//W3C//DTD SVG 1.1//EN" "http://www.w3.org/Graphics/SVG/1.1/DTD/svg11.dtd">
<svg version="1.1" id="Capa_1" xmlns="http://www.w3.org/2000/svg" xmlns:xlink="http://www.w3.org/1999/xlink" x="0px" y="0px"
	 width="79.518px" height="79.518px" viewBox="0 0 79.518 79.518" style="enable-background:new 0 0 79.518 79.518;"
	 xml:space="preserve">
<g>
	<g>
		<path d="M72.799,1.569L72.799,1.569C72.799,1.569,72.573,1.569,72.799,1.569C72.127,0.448,71.006,0,69.887,0l0,0H9.631l0,0
			C7.614,0,6.047,1.569,6.047,3.584l0,0v3.137v11.647v6.496v11.648v6.494v11.648v6.496v11.646v3.137l0,0
			c0,0.672,0.224,1.344,0.672,2.018l0,0l0,0c0.672,0.896,1.792,1.566,2.912,1.566l0,0h60.256l0,0c2.016,0,3.584-1.566,3.584-3.584
			l0,0v-3.137V61.152v-6.495v-11.65v-6.494V24.865v-6.496V6.721V3.584l0,0C73.245,2.689,73.023,2.24,72.799,1.569z M28.895,68.32
			c0,0.896-0.672,1.568-1.567,1.568h-8.287c-0.896,0-1.568-0.673-1.568-1.568v-3.584c0-0.896,0.672-1.567,1.568-1.567h8.287
			c0.896,0,1.567,0.672,1.567,1.567V68.32z M28.895,56.225c0,0.896-0.672,1.567-1.567,1.567h-8.287
			c-0.896,0-1.568-0.672-1.568-1.567v-3.584c0-0.896,0.672-1.567,1.568-1.567h8.287c0.896,0,1.567,0.672,1.567,1.567V56.225z
			 M28.895,44.354c0,0.896-0.672,1.565-1.567,1.565h-8.287c-0.896,0-1.568-0.672-1.568-1.565V40.77c0-0.896,0.672-1.568,1.568-1.568
			h8.287c0.896,0,1.567,0.672,1.567,1.568V44.354z M45.245,68.32c0,0.896-0.672,1.568-1.565,1.568h-8.289
			c-0.896,0-1.568-0.673-1.568-1.568v-3.584c0-0.896,0.673-1.567,1.568-1.567h8.289c0.896,0,1.565,0.672,1.565,1.567V68.32z
			 M45.245,56.225c0,0.896-0.672,1.567-1.565,1.567h-8.289c-0.896,0-1.568-0.672-1.568-1.567v-3.584
			c0-0.896,0.673-1.567,1.568-1.567h8.289c0.896,0,1.565,0.672,1.565,1.567V56.225z M45.245,44.354c0,0.896-0.672,1.565-1.565,1.565
			h-8.289c-0.896,0-1.568-0.672-1.568-1.565V40.77c0-0.896,0.673-1.568,1.568-1.568h8.289c0.896,0,1.565,0.672,1.565,1.568V44.354z
			 M61.822,68.32c0,0.896-0.672,1.568-1.567,1.568h-8.286c-0.896,0-1.568-0.673-1.568-1.568v-3.584c0-0.896,0.672-1.567,1.568-1.567
			h8.286c0.896,0,1.567,0.672,1.567,1.567V68.32z M61.822,56.225c0,0.896-0.672,1.567-1.567,1.567h-8.286
			c-0.896,0-1.568-0.672-1.568-1.567v-3.584c0-0.896,0.672-1.567,1.568-1.567h8.286c0.896,0,1.567,0.672,1.567,1.567V56.225z
			 M61.822,44.354c0,0.896-0.672,1.565-1.567,1.565h-8.286c-0.896,0-1.568-0.672-1.568-1.565V40.77c0-0.896,0.672-1.568,1.568-1.568
			h8.286c0.896,0,1.567,0.672,1.567,1.568V44.354z M62.493,31.809L62.493,31.809c0,0.896-0.673,1.566-1.567,1.566H18.143
			c-0.896,0-1.567-0.672-1.567-1.566V10.977c0-0.896,0.672-1.568,1.567-1.568h42.783c0.896,0,1.567,0.672,1.567,1.568V31.809z"/>
		<path d="M28.447,19.712c-1.566-0.672-2.238-0.896-2.238-1.567c0-0.448,0.446-0.896,1.566-0.896c1.345,0,2.018,0.448,2.464,0.672
			l0.448-2.016c-0.672-0.224-1.344-0.448-2.464-0.672v-1.568h-1.792v1.792c-1.792,0.448-2.912,1.568-2.912,3.136
			c0,1.793,1.344,2.688,3.136,3.137c1.346,0.448,1.792,0.896,1.792,1.567s-0.672,1.121-1.792,1.121
			c-1.119,0-2.238-0.448-2.911-0.672l-0.447,2.017c0.672,0.446,1.792,0.672,2.912,0.672v1.792h1.792v-2.018
			c2.016-0.446,3.136-1.791,3.136-3.358C31.359,21.504,30.463,20.385,28.447,19.712z"/>
		<path d="M40.543,19.712c-1.568-0.672-2.24-0.896-2.24-1.567c0-0.448,0.448-0.896,1.567-0.896c1.345,0,2.017,0.448,2.464,0.672
			l0.448-2.016c-0.673-0.224-1.345-0.448-2.464-0.672v-1.568h-1.792v1.792c-1.792,0.448-2.912,1.568-2.912,3.136
			c0,1.793,1.346,2.688,3.138,3.137c1.344,0.448,1.792,0.896,1.792,1.567s-0.673,1.121-1.792,1.121c-1.12,0-2.24-0.448-2.912-0.672
			l-0.448,2.017c0.672,0.446,1.792,0.672,2.912,0.672v1.792h1.792v-2.018c2.016-0.446,3.137-1.791,3.137-3.358
			C43.68,21.504,42.782,20.385,40.543,19.712z"/>
		<path d="M52.863,19.712c-1.566-0.672-2.238-0.896-2.238-1.567c0-0.448,0.445-0.896,1.566-0.896c1.345,0,2.018,0.448,2.463,0.672
			l0.449-2.016c-0.672-0.224-1.346-0.448-2.465-0.672v-1.568h-1.791v1.792c-1.793,0.448-2.912,1.568-2.912,3.136
			c0,1.793,1.344,2.688,3.135,3.137c1.346,0.448,1.793,0.896,1.793,1.567s-0.672,1.121-1.793,1.121
			c-1.118,0-2.239-0.448-2.911-0.672l-0.447,2.016c0.672,0.446,1.791,0.672,2.911,0.672v1.792h1.791v-2.018
			c2.018-0.446,3.139-1.791,3.139-3.358C55.775,21.504,54.879,20.385,52.863,19.712z"/>
	</g>
</g>
<g>
</g>
<g>
</g>
<g>
</g>
<g>
</g>
<g>
</g>
<g>
</g>
<g>
</g>
<g>
</g>
<g>
</g>
<g>
</g>
<g>
</g>
<g>
</g>
<g>
</g>
<g>
</g>
<g>
</g>
</svg>
