<?xml version="1.0" encoding="iso-8859-1"?>
<!-- Generator: Adobe Illustrator 16.0.0, SVG Export Plug-In . SVG Version: 6.00 Build 0)  -->
<!DOCTYPE svg PUBLIC "-//W3C//DTD SVG 1.1//EN" "http://www.w3.org/Graphics/SVG/1.1/DTD/svg11.dtd">
<svg version="1.1" id="Capa_1" xmlns="http://www.w3.org/2000/svg" xmlns:xlink="http://www.w3.org/1999/xlink" x="0px" y="0px"
	 width="90.929px" height="90.929px" viewBox="0 0 90.929 90.929" style="enable-background:new 0 0 90.929 90.929;"
	 xml:space="preserve">
<g>
	<g>
		<path d="M49.166,45.137h-8.22c-0.552,0-1,0.448-1,1c0,0.553,0.448,1,1,1h8.22c0.551,0,1-0.447,1-1
			C50.166,45.586,49.719,45.137,49.166,45.137z"/>
		<path d="M59.371,45.137c-2.668,0-4.836,2.17-4.836,4.836c0,2.664,2.17,4.834,4.836,4.834s4.834-2.17,4.834-4.834
			C64.205,47.308,62.037,45.137,59.371,45.137z M59.371,52.811c-1.562,0-2.836-1.271-2.836-2.837c0-1.562,1.271-2.836,2.836-2.836
			c1.564,0,2.834,1.271,2.834,2.836C62.205,51.536,60.936,52.811,59.371,52.811z"/>
		<path d="M70.986,57.646c0-2.252-1.83-4.082-4.082-4.082c-2.25,0-4.082,1.83-4.082,4.082c0,2.25,1.832,4.082,4.082,4.082
			C69.156,61.729,70.986,59.896,70.986,57.646z M66.904,59.729c-1.148,0-2.082-0.937-2.082-2.082c0-1.148,0.934-2.082,2.082-2.082
			c1.147,0,2.082,0.934,2.082,2.082C68.986,58.792,68.053,59.729,66.904,59.729z"/>
		<path d="M44.676,51.646c-2.438,0-4.424,1.983-4.424,4.424c0,2.439,1.985,4.424,4.424,4.424c2.439,0,4.426-1.984,4.426-4.424
			C49.102,53.63,47.117,51.646,44.676,51.646z M44.676,58.492c-1.337,0-2.424-1.088-2.424-2.424c0-1.338,1.087-2.424,2.424-2.424
			s2.426,1.086,2.426,2.424C47.102,57.404,46.014,58.492,44.676,58.492z"/>
		<path d="M45.201,62.808c-2.1,0-3.808,1.709-3.808,3.81c0,2.102,1.708,3.809,3.808,3.809c2.1,0,3.809-1.707,3.809-3.809
			C49.01,64.517,47.301,62.808,45.201,62.808z M45.201,68.423c-0.997,0-1.808-0.812-1.808-1.81c0-0.996,0.811-1.809,1.808-1.809
			c0.998,0,1.809,0.812,1.809,1.809C47.01,67.611,46.199,68.423,45.201,68.423z"/>
		<path d="M32.558,48.788c-2.446,0-4.438,1.989-4.438,4.438c0,2.447,1.991,4.438,4.438,4.438c2.447,0,4.438-1.99,4.438-4.438
			C36.996,50.777,35.005,48.788,32.558,48.788z M32.558,55.665c-1.345,0-2.438-1.095-2.438-2.438c0-1.346,1.094-2.438,2.438-2.438
			c1.345,0,2.438,1.094,2.438,2.438S33.902,55.665,32.558,55.665z"/>
		<path d="M24.338,55.863c-2.02,0-3.664,1.644-3.664,3.664s1.645,3.664,3.664,3.664c2.021,0,3.664-1.645,3.664-3.664
			C28.003,57.507,26.359,55.863,24.338,55.863z M24.338,61.193c-0.917,0-1.664-0.746-1.664-1.664c0-0.916,0.746-1.664,1.664-1.664
			s1.664,0.746,1.664,1.664S25.256,61.193,24.338,61.193z"/>
		<path d="M75.805,77.259c4.109-4.637,7.143-10.229,8.766-16.185c0.953-3.489,1.437-7.088,1.437-10.69
			c0-16.024-9.418-30.487-24.024-37.014C60.328,5.595,53.472,0,45.466,0c-8.007,0-14.859,5.595-16.514,13.37
			c-14.611,6.528-24.03,20.99-24.03,37.014c0,4.847,0.85,9.588,2.524,14.104c2.375,6.399,6.389,12.156,11.605,16.645
			c5.686,4.889,12.58,8.098,19.941,9.275c2.152,0.346,4.329,0.521,6.47,0.521c2.709,0,5.426-0.271,8.073-0.807
			C62.074,88.396,69.984,83.826,75.805,77.259z M74.297,74.949c-0.166-0.123-0.33-0.25-0.484-0.385
			c-0.115-0.1-0.229-0.203-0.334-0.307c-0.146-0.145-0.287-0.289-0.424-0.439c-0.1-0.112-0.193-0.229-0.287-0.346
			c-0.129-0.158-0.242-0.324-0.354-0.492c-0.082-0.123-0.166-0.246-0.238-0.373c-0.104-0.178-0.198-0.36-0.289-0.545
			c-0.063-0.131-0.131-0.26-0.188-0.393c-0.084-0.197-0.151-0.4-0.223-0.604c-0.043-0.131-0.092-0.261-0.129-0.394
			c-0.062-0.229-0.105-0.465-0.148-0.701c-0.021-0.114-0.051-0.227-0.065-0.344c-0.049-0.354-0.076-0.717-0.076-1.084
			c0-4.404,3.584-7.988,7.99-7.988c0.326,0,0.651,0.025,0.978,0.066c0.104,0.012,0.205,0.032,0.307,0.051
			c0.223,0.037,0.441,0.08,0.658,0.138c0.115,0.026,0.229,0.062,0.344,0.096c0.205,0.062,0.41,0.135,0.611,0.213
			c0.104,0.043,0.215,0.084,0.319,0.131c0.056,0.025,0.104,0.059,0.158,0.08c-1.513,5.105-4.11,9.908-7.569,13.984
			c-0.062-0.035-0.119-0.066-0.179-0.104C74.541,75.128,74.42,75.038,74.297,74.949z M45.463,2.001
			c7.217,0,13.383,5.148,14.663,12.242c0.162,0.891,0.241,1.787,0.241,2.663c0,5.022-2.512,9.677-6.721,12.45
			c-0.281,0.185-0.449,0.499-0.449,0.835v5.496h-4.271V20.495h1.74c2.063,0,3.737-1.677,3.737-3.739s-1.678-3.739-3.737-3.739
			c-2.063,0-3.74,1.678-3.74,3.739v1.739h-4.501v-1.739c0-2.062-1.677-3.739-3.738-3.739c-2.063,0-3.74,1.678-3.74,3.739
			c0,2.063,1.678,3.739,3.74,3.739h1.738v15.191h-3.22v-5.863c0-0.322-0.155-0.625-0.417-0.813
			c-3.902-2.801-6.232-7.325-6.232-12.104c0-0.876,0.082-1.772,0.242-2.663C32.08,7.151,38.246,2.001,45.463,2.001z M42.426,35.687
			V20.495h4.501v15.191L42.426,35.687L42.426,35.687z M53.197,37.687v1.288h-15.99v-1.288H53.197z M37.207,40.974h15.99v1.733
			h-15.99V40.974z M48.928,16.756c0-0.959,0.779-1.739,1.738-1.739s1.74,0.779,1.74,1.739c0,0.959-0.779,1.739-1.74,1.739h-1.738
			V16.756z M38.689,18.495c-0.959,0-1.74-0.78-1.74-1.739s0.78-1.739,1.74-1.739c0.959,0,1.738,0.779,1.738,1.739v1.739H38.689z
			 M9.716,64.814c0.056-0.015,0.111-0.021,0.166-0.033c0.21-0.043,0.42-0.076,0.63-0.105c0.091-0.012,0.181-0.023,0.271-0.031
			c0.294-0.029,0.589-0.051,0.884-0.051c5.137,0,9.315,4.182,9.315,9.316c0,0.402-0.033,0.801-0.083,1.193
			c-0.01,0.069-0.017,0.145-0.027,0.215c-0.057,0.375-0.136,0.744-0.238,1.104c-0.02,0.069-0.042,0.142-0.063,0.209
			c-0.114,0.373-0.245,0.742-0.406,1.101c-0.002,0.004-0.005,0.01-0.008,0.016c-0.16,0.352-0.352,0.691-0.557,1.023
			c-0.022,0.036-0.045,0.073-0.068,0.11C15.245,74.982,11.876,70.152,9.716,64.814z M40.054,88.544
			c-0.017-0.188-0.049-0.377-0.049-0.563c0-1.906,0.86-3.683,2.361-4.869c0.003-0.002,0.006-0.006,0.01-0.008
			c0.55-0.438,1.166-0.771,1.83-0.998c0.098-0.033,0.189-0.082,0.272-0.146c1.433-1.062,2.287-2.328,2.74-3.168
			c0.306,0.152,0.601,0.346,0.879,0.572c1.095,0.875,2.009,2.231,2.687,3.508c0.104,0.199,0.207,0.396,0.301,0.588
			c0.004,0.006,0.006,0.012,0.01,0.02c0.391,0.797,0.674,1.521,0.84,2.023c0.014,0.045,0.025,0.09,0.045,0.133
			c0.308,0.75,0.461,1.539,0.461,2.346c0,0.103-0.01,0.211-0.018,0.318C48.377,89.036,44.211,89.13,40.054,88.544z M54.439,87.872
			c-0.002-0.134-0.018-0.265-0.022-0.396c-0.006-0.104-0.009-0.209-0.019-0.312c-0.018-0.156-0.043-0.311-0.065-0.465
			c-0.017-0.096-0.024-0.193-0.045-0.289c-0.031-0.17-0.076-0.338-0.121-0.506c-0.021-0.078-0.035-0.156-0.06-0.232
			c-0.071-0.244-0.153-0.484-0.248-0.727c-0.008-0.023-0.033-0.099-0.063-0.191c-0.401-1.154-2.674-7.168-6.854-8.189
			c-0.501-0.125-1.013,0.156-1.185,0.644c-0.006,0.018-0.623,1.715-2.354,3.057c-0.797,0.293-1.54,0.703-2.21,1.226
			c-0.044,0.029-0.086,0.062-0.125,0.1c-1.946,1.57-3.062,3.896-3.062,6.391c0,0.072,0.001,0.148,0.003,0.224
			c-6.207-1.218-12.022-3.962-16.945-7.992c0.166-0.248,0.319-0.504,0.466-0.763c0.044-0.077,0.081-0.157,0.123-0.237
			c0.099-0.187,0.195-0.375,0.285-0.563c0.047-0.104,0.088-0.205,0.132-0.31c0.074-0.176,0.146-0.351,0.211-0.524
			c0.041-0.111,0.079-0.228,0.116-0.341c0.058-0.174,0.111-0.35,0.161-0.522c0.032-0.115,0.063-0.23,0.093-0.346
			c0.045-0.187,0.083-0.365,0.119-0.552c0.021-0.108,0.045-0.225,0.063-0.338c0.033-0.201,0.056-0.399,0.078-0.604
			c0.01-0.098,0.025-0.192,0.033-0.291c0.023-0.301,0.039-0.604,0.039-0.903c0-6.238-5.076-11.313-11.315-11.313
			c-0.396,0-0.792,0.027-1.187,0.07c-0.104,0.01-0.207,0.023-0.312,0.037c-0.358,0.049-0.716,0.111-1.071,0.195
			c-0.029,0.006-0.061,0.008-0.091,0.018c-1.385-4.025-2.087-8.24-2.087-12.533c0-14.809,8.452-28.226,21.681-34.661
			c-0.029,0.396-0.044,0.792-0.044,1.183c0,5.249,2.477,10.227,6.649,13.42v13.381c0,0.552,0.448,1,1,1h17.991c0.552,0,1-0.448,1-1
			v-5.921c0.162-0.178,0.261-0.414,0.261-0.673c0-0.259-0.099-0.496-0.261-0.673v-5.722c4.5-3.173,7.17-8.296,7.17-13.812
			c0-0.392-0.014-0.787-0.043-1.183c13.228,6.435,21.681,19.852,21.681,34.66c0,3.018-0.354,6.031-1.062,8.977
			c-0.004-0.002-0.008-0.004-0.014-0.006c-0.025-0.012-0.053-0.02-0.08-0.028c-0.344-0.144-0.695-0.263-1.051-0.365
			c-0.117-0.035-0.234-0.063-0.354-0.092c-0.283-0.072-0.568-0.129-0.857-0.177c-0.117-0.02-0.232-0.039-0.354-0.055
			c-0.396-0.049-0.793-0.08-1.193-0.08c-5.508,0-9.988,4.48-9.988,9.988c0,0.451,0.035,0.896,0.094,1.334
			c0.021,0.145,0.055,0.283,0.08,0.428c0.053,0.291,0.105,0.58,0.185,0.863c0.043,0.162,0.102,0.318,0.151,0.479
			c0.084,0.254,0.17,0.507,0.271,0.752c0.068,0.162,0.146,0.318,0.221,0.479c0.111,0.231,0.23,0.461,0.361,0.687
			c0.09,0.149,0.184,0.303,0.279,0.451c0.145,0.217,0.297,0.426,0.455,0.631c0.104,0.137,0.213,0.272,0.328,0.405
			c0.176,0.203,0.364,0.396,0.562,0.589c0.115,0.112,0.229,0.231,0.354,0.344c0.23,0.205,0.479,0.393,0.729,0.576
			c0.104,0.076,0.203,0.164,0.313,0.233c0.016,0.013,0.025,0.021,0.045,0.033C68.342,82.275,61.66,86.145,54.439,87.872z"/>
	</g>
</g>
<g>
</g>
<g>
</g>
<g>
</g>
<g>
</g>
<g>
</g>
<g>
</g>
<g>
</g>
<g>
</g>
<g>
</g>
<g>
</g>
<g>
</g>
<g>
</g>
<g>
</g>
<g>
</g>
<g>
</g>
</svg>
